Coordinates
version=1
nRows=27
nColumns=12
inDegrees=yes

Units are S.I. units (second, meters, Newtons, ...)
Angles are in degrees

endheader
time	SC_y	SC_z	SC_x	AC_y	AC_z	AC_x	GH_y	GH_z	GH_yy	EL_x	PS_y
       0.0              -13.78          12.68          66.58          62.39         -3.254         -8.456          71.83          3.309          51.48          82.03          85.57
  0.002179              -13.78          12.68          66.58          62.39         -3.253         -8.453          71.82          3.322          51.47          82.04          85.55
  0.004358              -13.78          12.68          66.58          62.39         -3.253          -8.45           71.8          3.335          51.45          82.05          85.54
  0.006537              -13.78          12.68          66.58          62.39         -3.252         -8.446          71.78          3.348          51.43          82.06          85.53
  0.008716              -13.78          12.69          66.58          62.39         -3.251         -8.443          71.77          3.363          51.42          82.07          85.52
    0.0109              -13.78          12.69          66.57          62.39          -3.25         -8.439          71.75          3.379           51.4          82.08           85.5
   0.01307              -13.78          12.69          66.57          62.39          -3.25         -8.434          71.73          3.396          51.38          82.09          85.49
   0.01525              -13.78          12.69          66.57          62.39         -3.249          -8.43           71.7          3.414          51.36           82.1          85.47
   0.01743              -13.78           12.7          66.57          62.39         -3.248         -8.425          71.68          3.433          51.33          82.11          85.45
   0.01961              -13.78           12.7          66.57          62.39         -3.247          -8.42          71.66          3.453          51.31          82.13          85.43
   0.02179              -13.78           12.7          66.57          62.39         -3.246         -8.414          71.63          3.475          51.28          82.14          85.41
   0.02397              -13.78          12.71          66.56          62.39         -3.245         -8.408           71.6          3.499          51.26          82.15          85.39
   0.02615              -13.78          12.71          66.56          62.39         -3.244         -8.402          71.57          3.525          51.23          82.17          85.37
   0.02833              -13.79          12.72          66.56          62.39         -3.242         -8.395          71.53          3.553          51.19          82.19          85.34
   0.03051              -13.79          12.72          66.56          62.39         -3.241         -8.387           71.5          3.583          51.16          82.21          85.31
   0.03269              -13.79          12.73          66.55          62.39         -3.239         -8.379          71.46          3.615          51.12          82.23          85.28
   0.03486              -13.79          12.73          66.55          62.39         -3.238          -8.37          71.41          3.651          51.08          82.25          85.25
   0.03704              -13.79          12.74          66.55           62.4         -3.236          -8.36          71.37          3.689          51.03          82.28          85.21
   0.03922              -13.79          12.74          66.54           62.4         -3.234         -8.349          71.32          3.731          50.98           82.3          85.18
    0.0414              -13.79          12.75          66.54           62.4         -3.232         -8.338          71.26          3.777          50.93          82.33          85.13
   0.04358              -13.79          12.76          66.54           62.4          -3.23         -8.325           71.2          3.828          50.87          82.37          85.09
   0.04576              -13.79          12.77          66.53           62.4         -3.227         -8.311          71.13          3.883           50.8           82.4          85.04
   0.04794              -13.79          12.78          66.53           62.4         -3.224         -8.295          71.05          3.945          50.73          82.44          84.98
   0.05012              -13.79          12.79          66.52           62.4         -3.221         -8.278          70.97          4.013          50.65          82.48          84.92
    0.0523              -13.79           12.8          66.51           62.4         -3.217         -8.258          70.88          4.089          50.56          82.53          84.85
   0.05448              -13.79          12.81          66.51          62.41         -3.213         -8.237          70.77          4.173          50.46          82.59          84.77
   0.05665              -13.79          12.83           66.5          62.41         -3.209         -8.213          70.66          4.268          50.35          82.65          84.68
